<?xml version="1.0" encoding="utf-8"?>
<!-- Generator: Adobe Illustrator 19.0.0, SVG Export Plug-In . SVG Version: 6.00 Build 0)  -->
<svg xmlns="http://www.w3.org/2000/svg" xmlns:xlink="http://www.w3.org/1999/xlink" version="1.1" id="Layer_1" x="0px" y="0px" viewBox="0 2 98 98" style="enable-background:new 0 2 98 98;" xml:space="preserve" width="512" height="512">
<style type="text/css">
	.st0{fill:url(#SVGID_1_);}
</style>
<linearGradient id="SVGID_1_" gradientUnits="userSpaceOnUse" x1="49" y1="11.6499" x2="49" y2="90.3501">
	<stop offset="0" style="stop-color:#00EFD1"/>
	<stop offset="1" style="stop-color:#00ACEA"/>
</linearGradient>
<path class="st0" d="M84.9,19.5c-4.4-4.4-10.3-6.9-16.7-6.9c0,0,0,0-0.1,0c-6.6,0-13.1,2.5-18.4,6.9c-6-5.3-11.4-7.9-16.6-7.9  c-7.1,0-13.8,2.8-18.6,7.9c-3.6,3.6-6.1,8.4-7.2,13.8C7,35,8.1,36.6,9.7,36.9c1.6,0.3,3.2-0.7,3.5-2.4c0.8-4.2,2.8-8,5.6-10.8  c3.8-3.9,8.8-6.1,14.3-6.1c4,0,8.8,2.7,14.3,7.9c1.3,1.3,3.3,1.3,4.5,0c4.4-4.4,10.3-7,16.1-7c0,0,0,0,0.1,0c4.9,0,9.2,1.8,12.4,5.1  c3.8,4,6,9.3,6,14.8c0,2.4-0.4,4.7-1.2,6.9H63c-0.8,0-1.6,0.3-2.2,0.9L51.7,56L41.2,32.2c-0.5-1-1.4-1.7-2.5-1.8  c-1.1-0.1-2.2,0.5-2.8,1.4l-8.3,13.6H8.4c-1.7,0-3,1.3-3,3s1.3,3,3,3h20.9c1,0,2-0.5,2.6-1.4l6.2-10.1l10,22.7  c0.4,0.9,1.2,1.6,2.2,1.7c0.2,0,0.3,0,0.5,0c0.8,0,1.6-0.3,2.2-0.9l11.3-12h18c-0.5,0.6-1,1.3-1.6,1.8L49.8,83.2L25.3,59.5  c-1.2-1.2-3.1-1.1-4.2,0.1c-1.2,1.2-1.1,3.1,0.1,4.2l26.6,25.7c0.6,0.6,1.3,0.8,2.1,0.8c0.8,0,1.5-0.3,2.1-0.8l33.1-32  c4.9-5,7.7-11.9,7.7-19C92.6,31.5,89.9,24.7,84.9,19.5z"/>
</svg>
