<?xml version="1.0" encoding="utf-8"?>
<!-- Generator: Adobe Illustrator 19.0.0, SVG Export Plug-In . SVG Version: 6.00 Build 0)  -->
<svg xmlns="http://www.w3.org/2000/svg" xmlns:xlink="http://www.w3.org/1999/xlink" version="1.1" id="Layer_1" x="0px" y="0px" viewBox="0 2 98 98" style="enable-background:new 0 2 98 98;" xml:space="preserve" width="512" height="512">
<style type="text/css">
	.st0{fill:url(#SVGID_1_);}
	.st1{fill:url(#SVGID_2_);}
	.st2{fill:url(#SVGID_3_);}
	.st3{fill:url(#SVGID_4_);}
	.st4{fill:url(#SVGID_5_);}
</style>
<g>
	
		<linearGradient id="SVGID_1_" gradientUnits="userSpaceOnUse" x1="48.9691" y1="91.3333" x2="48.9691" y2="10.3333" gradientTransform="matrix(1 0 0 -1 0 104)">
		<stop offset="0" style="stop-color:#00EFD1"/>
		<stop offset="1" style="stop-color:#00ACEA"/>
	</linearGradient>
	<path class="st0" d="M88.9,55.6c-1.6-0.5-3.3,0.5-3.7,2.1C82.1,68.3,74,76.5,63.9,80c7.8-6.4,12.9-16.1,12.9-27   c0-19.2-15.7-34.9-34.9-34.9c-19.3,0-35,15.7-35,34.9s15.7,34.9,34.9,34.9h11.1c17.5,0,33.1-11.7,38-28.6   C91.4,57.7,90.5,56.1,88.9,55.6z M12.9,53c0-15.9,13-28.9,28.9-28.9s28.9,13,28.9,28.9s-13,28.9-28.9,28.9S12.9,68.9,12.9,53z"/>
	
		<linearGradient id="SVGID_2_" gradientUnits="userSpaceOnUse" x1="41.8" y1="91.3333" x2="41.8" y2="10.3333" gradientTransform="matrix(1 0 0 -1 0 104)">
		<stop offset="0" style="stop-color:#00EFD1"/>
		<stop offset="1" style="stop-color:#00ACEA"/>
	</linearGradient>
	<path class="st1" d="M41.8,47.6c5.6,0,10.1-4.5,10.1-10.1s-4.5-10.1-10.1-10.1s-10.1,4.5-10.1,10.1S36.3,47.6,41.8,47.6z    M41.8,33.4c2.3,0,4.1,1.8,4.1,4.1s-1.8,4.1-4.1,4.1s-4.1-1.8-4.1-4.1S39.6,33.4,41.8,33.4z"/>
	
		<linearGradient id="SVGID_3_" gradientUnits="userSpaceOnUse" x1="41.8" y1="91.3333" x2="41.8" y2="10.3333" gradientTransform="matrix(1 0 0 -1 0 104)">
		<stop offset="0" style="stop-color:#00EFD1"/>
		<stop offset="1" style="stop-color:#00ACEA"/>
	</linearGradient>
	<path class="st2" d="M51.9,68.5c0-5.6-4.5-10.1-10.1-10.1s-10.1,4.5-10.1,10.1s4.5,10.1,10.1,10.1S51.9,74.1,51.9,68.5z M37.7,68.5   c0-2.3,1.8-4.1,4.1-4.1s4.1,1.8,4.1,4.1s-1.8,4.1-4.1,4.1S37.7,70.8,37.7,68.5z"/>
	
		<linearGradient id="SVGID_4_" gradientUnits="userSpaceOnUse" x1="57.4" y1="91.3333" x2="57.4" y2="10.3333" gradientTransform="matrix(1 0 0 -1 0 104)">
		<stop offset="0" style="stop-color:#00EFD1"/>
		<stop offset="1" style="stop-color:#00ACEA"/>
	</linearGradient>
	<path class="st3" d="M47.3,53c0,5.6,4.5,10.1,10.1,10.1S67.5,58.6,67.5,53S63,42.9,57.4,42.9S47.3,47.4,47.3,53z M57.4,48.9   c2.3,0,4.1,1.8,4.1,4.1s-1.8,4.1-4.1,4.1s-4.1-1.8-4.1-4.1S55.2,48.9,57.4,48.9z"/>
	
		<linearGradient id="SVGID_5_" gradientUnits="userSpaceOnUse" x1="26.3" y1="91.3333" x2="26.3" y2="10.3333" gradientTransform="matrix(1 0 0 -1 0 104)">
		<stop offset="0" style="stop-color:#00EFD1"/>
		<stop offset="1" style="stop-color:#00ACEA"/>
	</linearGradient>
	<path class="st4" d="M36.4,53c0-5.6-4.5-10.1-10.1-10.1S16.2,47.4,16.2,53s4.5,10.1,10.1,10.1S36.4,58.6,36.4,53z M26.3,57.1   c-2.3,0-4.1-1.8-4.1-4.1s1.8-4.1,4.1-4.1s4.1,1.8,4.1,4.1S28.6,57.1,26.3,57.1z"/>
</g>

</svg>
