<svg height="468pt" viewBox="-61 0 468 468.52814" width="468pt" xmlns="http://www.w3.org/2000/svg" xmlns:xlink="http://www.w3.org/1999/xlink"><linearGradient id="a"><stop offset="0" stop-color="#00efd1"/><stop offset="1" stop-color="#00acea"/></linearGradient><linearGradient id="b" gradientTransform="matrix(1 0 0 -1 -83.208089 492.262777)" gradientUnits="userSpaceOnUse" x1="255.998" x2="255.998" xlink:href="#a" y1="502" y2="19.934"/><linearGradient id="c" gradientTransform="matrix(1 0 0 -1 -83.208089 492.262777)" gradientUnits="userSpaceOnUse" x1="256" x2="256" xlink:href="#a" y1="502" y2="19.934"/><path d="m338.082031 154.1875-23.8125-17.835938 13.707031-26.382812c2.628907-5.054688 2.714844-11.054688.238282-16.183594-2.476563-5.132812-7.230469-8.792968-12.824219-9.882812l-29.144531-5.671875.929687-29.757813c.179688-5.699218-2.339843-11.144531-6.796875-14.695312-4.457031-3.550782-10.328125-4.792969-15.839844-3.351563l-28.769531 7.535157-12.101562-27.226563c-2.3125-5.207031-6.945313-9.019531-12.5-10.28125-5.558594-1.265625-11.382813.164063-15.722657 3.855469l-22.652343 19.28125-22.65625-19.28125c-4.339844-3.691406-10.164063-5.121094-15.722657-3.859375-5.554687 1.265625-10.1875 5.078125-12.5 10.285156l-12.101562 27.230469-28.773438-7.539063c-5.511718-1.441406-11.382812-.203125-15.839843 3.351563-4.457031 3.550781-6.976563 8.996094-6.796875 14.691406l.929687 29.761719-29.140625 5.671875c-5.589844 1.089844-10.34375 4.753906-12.820312 9.882812-2.476563 5.128906-2.386719 11.128906.238281 16.183594l13.707031 26.382812-23.816406 17.835938c-4.550781 3.410156-7.230469 8.761719-7.234375 14.449219s2.667969 11.042969 7.214844 14.460937l23.835937 17.898438-13.710937 26.402344c-2.625 5.054687-2.710938 11.054687-.234375 16.183593 2.476562 5.132813 7.226562 8.792969 12.820312 9.878907l29.144532 5.675781-.929688 29.757812c-.308594 9.980469 7.527344 18.320313 17.507812 18.628907.109376 0 .222657.007812.332032.007812l-41.636719 101.078125c-2.96875 7.207031-1.480469 15.480469 3.8125 21.199219 5.292969 5.722656 13.429687 7.847656 20.84375 5.445312l38.390625-12.433594 16.8125 34.472657c3.300781 6.90625 10.292969 11.28125 17.941406 11.234375.234375 0 .464844-.003906.699219-.011719 7.902344-.199219 14.925781-5.089844 17.855469-12.429687l22.421875-54.910157 21.238281 51.910157c2.933594 7.339843 9.953125 12.230468 17.855469 12.429687.234375.007813.464843.011719.699219.011719 7.652343.046875 14.640624-4.332032 17.941406-11.234375l16.816406-34.472657 38.390625 12.433594c7.414063 2.402344 15.546875.277344 20.839844-5.445312 5.292969-5.71875 6.78125-13.992188 3.8125-21.199219l-40.417969-98.132813c9.609375-.773437 16.925781-8.949218 16.628906-18.585937l-.929687-29.761719 29.128906-5.667968c5.59375-1.085938 10.34375-4.75 12.820313-9.878907 2.476562-5.132812 2.390624-11.128906-.238282-16.183593l-13.710937-26.394532 23.835937-17.898437c4.546875-3.417969 7.222656-8.773438 7.21875-14.460938s-2.6875-11.039062-7.238281-14.449219zm-205.640625 294.332031-16.808594-34.464843c-4.402343-8.921876-14.664062-13.285157-24.140624-10.261719l-38.386719 12.429687 47.078125-114.300781 9.632812-2.523437 12.097656 27.226562c4.058594 9.128906 14.75 13.238281 23.878907 9.175781.238281-.105469.476562-.21875.710937-.335937l16.070313 39.285156zm121.652344-47.726562c-9.476562-3.027344-19.742188 1.335937-24.140625 10.261719l-16.816406 34.464843-50.398438-123.183593 10.054688-8.5625 22.65625 19.28125c3.242187 2.78125 7.375 4.3125 11.648437 4.316406 1.371094 0 2.734375-.15625 4.070313-.460938 5.566406-1.242187 10.210937-5.058594 12.5-10.28125l12.101562-27.230468 11.023438 2.886718 45.6875 110.9375zm46.855469-214.800781c-7.085938 5.292968-9.28125 14.941406-5.183594 22.777343l13.273437 25.554688-28.222656 5.492187c-8.710937 1.667969-14.914062 9.433594-14.605468 18.300782l.898437 28.820312-27.859375-7.300781c-8.570312-2.273438-17.519531 2.03125-21.09375 10.144531l-11.714844 26.367188-21.941406-18.671876c-6.738281-5.773437-16.679688-5.773437-23.417969 0l-21.9375 18.667969-11.714843-26.367187c-2.875-6.527344-9.332032-10.738282-16.464844-10.742188-1.5625 0-3.117188.203125-4.625.601563l-27.863282 7.296875.898438-28.816406c.308594-8.867188-5.894531-16.632813-14.605469-18.300782l-28.222656-5.492187 13.273437-25.5625c4.097657-7.835938 1.902344-17.484375-5.183593-22.777344l-23.085938-17.332031 23.0625-17.273438c7.101563-5.285156 9.304688-14.949218 5.199219-22.792968l-13.269531-25.542969 28.222656-5.496094c8.710937-1.664063 14.910156-9.433594 14.605469-18.296875l-.898438-28.820312 27.859375 7.300781c8.570313 2.269531 17.515625-2.03125 21.089844-10.144531l11.714844-26.367188 21.945312 18.667969c6.738281 5.773437 16.679688 5.773437 23.417969 0l21.941406-18.671875 11.714844 26.367187c3.574219 8.113281 12.519531 12.414063 21.089844 10.144531l27.863281-7.300781-.902344 28.820313c-.304687 8.863281 5.894531 16.632812 14.609375 18.296875l28.21875 5.496093-13.269531 25.542969c-4.105469 7.84375-1.902344 17.507813 5.203125 22.792969l23.058594 17.273438zm0 0" fill="url(#b)"/><path d="m172.792969 77.375c-50.425781 0-91.304688 40.878906-91.304688 91.304688 0 50.425781 40.878907 91.304687 91.304688 91.304687s91.304687-40.878906 91.304687-91.304687c-.058594-50.402344-40.902344-91.246094-91.304687-91.304688zm0 162.609375c-39.382813 0-71.304688-31.921875-71.304688-71.304687 0-39.378907 31.921875-71.304688 71.304688-71.304688 39.378906 0 71.304687 31.925781 71.304687 71.304688-.046875 39.363281-31.945312 71.261718-71.304687 71.304687zm0 0" fill="url(#c)"/></svg>